<?xml version="1.0" encoding="UTF-8" standalone="no"?>
<!-- Created with Inkscape (http://www.inkscape.org/) -->

<svg
   xmlns:dc="http://purl.org/dc/elements/1.1/"
   xmlns:cc="http://creativecommons.org/ns#"
   xmlns:rdf="http://www.w3.org/1999/02/22-rdf-syntax-ns#"
   xmlns:svg="http://www.w3.org/2000/svg"
   xmlns="http://www.w3.org/2000/svg"
   xmlns:sodipodi="http://sodipodi.sourceforge.net/DTD/sodipodi-0.dtd"
   xmlns:inkscape="http://www.inkscape.org/namespaces/inkscape"
   version="1.0"
   width="5400"
   height="2160"
   id="svg4166"
   inkscape:version="0.91 r13725"
   sodipodi:docname="Red_color.svg">
  <sodipodi:namedview
     pagecolor="#ffffff"
     bordercolor="#666666"
     borderopacity="1"
     objecttolerance="10"
     gridtolerance="10"
     guidetolerance="10"
     inkscape:pageopacity="0"
     inkscape:pageshadow="2"
     inkscape:window-width="1280"
     inkscape:window-height="751"
     id="namedview3003"
     showgrid="true"
     inkscape:snap-to-guides="true"
     inkscape:zoom="0.21444444"
     inkscape:cx="320.55616"
     inkscape:cy="1222.3412"
     inkscape:window-x="0"
     inkscape:window-y="0"
     inkscape:window-maximized="1"
     inkscape:current-layer="text2991"
     showguides="false"
     inkscape:object-paths="false"
     inkscape:document-units="in"
     units="in"
     fit-margin-top="0.65"
     fit-margin-left="0.65"
     fit-margin-right="0.65"
     fit-margin-bottom="0.65"
     inkscape:snap-nodes="false"
     inkscape:snap-global="false"
     width="60in">
    <inkscape:grid
       type="xygrid"
       id="grid2983"
       empspacing="5"
       visible="true"
       enabled="true"
       snapvisiblegridlinesonly="true" />
  </sodipodi:namedview>
  <metadata
     id="metadata14">
    <rdf:RDF>
      <cc:Work
         rdf:about="">
        <dc:format>image/svg+xml</dc:format>
        <dc:type
           rdf:resource="http://purl.org/dc/dcmitype/StillImage" />
        <cc:license
           rdf:resource="http://creativecommons.org/licenses/by-sa/2.5/" />
        <dc:title></dc:title>
        <dc:date>27-01-2007</dc:date>
        <dc:creator>
          <cc:Agent>
            <dc:title>Lokal_Profil</dc:title>
          </cc:Agent>
        </dc:creator>
      </cc:Work>
      <cc:License
         rdf:about="http://creativecommons.org/licenses/by-sa/2.5/">
        <cc:permits
           rdf:resource="http://web.resource.org/cc/Reproduction" />
        <cc:permits
           rdf:resource="http://web.resource.org/cc/Distribution" />
        <cc:requires
           rdf:resource="http://web.resource.org/cc/Notice" />
        <cc:requires
           rdf:resource="http://web.resource.org/cc/Attribution" />
        <cc:permits
           rdf:resource="http://web.resource.org/cc/DerivativeWorks" />
        <cc:requires
           rdf:resource="http://web.resource.org/cc/ShareAlike" />
      </cc:License>
    </rdf:RDF>
  </metadata>
  <defs
     id="defs4168">
    <inkscape:perspective
       id="perspective9"
       inkscape:persp3d-origin="372.04724 : 350.78739 : 1"
       inkscape:vp_z="744.09448 : 526.18109 : 1"
       inkscape:vp_y="0 : 1000 : 0"
       inkscape:vp_x="0 : 526.18109 : 1"
       sodipodi:type="inkscape:persp3d" />
  </defs>
  <g
     transform="matrix(0,1,-1,0,0,0)"
     style="font-size:53.88002013999999900px;font-style:normal;font-weight:normal;line-height:125%;letter-spacing:0px;word-spacing:0px;fill:none;fill-opacity:1;stroke:#000000;font-family:Sans;stroke-opacity:1;stroke-width:1;stroke-miterlimit:4;stroke-dasharray:none"
     id="text2991">
    <g
       id="g5577"
       transform="matrix(-1,0,0,1,482.82259,-550.44749)">
      <g
         style="display:inline;opacity:1"
         id="layer1"
         inkscape:label="Layer 1">
        <g
           transform="matrix(1.3686097,0,0,1.3686097,24.956634,98.832573)"
           id="g4463">
          <path
             inkscape:connector-curvature="0"
             style="fill:none;fill-rule:evenodd;stroke:#ff0000;stroke-width:1px;stroke-linecap:butt;stroke-linejoin:miter;stroke-opacity:1"
             d="m 68.453125,19.988281 c -7.267999,-0.01327 -17.480469,0.296875 -17.480469,0.296875 L 115.03125,153.26953 180.45703,20.4375 c 0,0 -19.93607,-0.698582 -25.18164,-0.152344 -5.24558,0.546238 -4.54648,0.256628 -6.31445,1.369141 -1.76797,1.112513 -2.81645,2.812939 -3.72656,4.792969 L 115.33398,91.494141 85.283203,25.914062 c -0.857124,-1.870485 -1.65866,-3.431599 -3.574219,-4.564453 -1.915558,-1.132853 -2.333379,-0.818139 -7.457031,-1.216797 -1.280913,-0.09966 -3.376162,-0.140108 -5.798828,-0.144531 z m 124.746095,23.71875 c -0.86258,0.01793 -1.63579,0.06647 -2.16602,0.16211 -2.12092,0.382561 -2.88424,0.329337 -4.49023,1.673828 -1.60599,1.34449 -2.53809,3.855232 -3.95508,6.695312 -1.41699,2.84008 -41.38672,85.966799 -41.38672,85.966799 0,0 5.23659,0.22629 7.30274,-0.0762 2.06614,-0.30247 3.30249,-0.13317 5.02148,-1.44532 1.719,-1.31214 2.60477,-3.65848 4.0332,-6.61718 l 41.61524,-86.197269 c 0,0 -3.38688,-0.215907 -5.97461,-0.16211 z M 36.453125,44.259766 c -2.233872,0.01305 -5.109375,0.216796 -5.109375,0.216796 0,0 41.312896,85.273718 42.453125,87.642578 0,0 2.064367,3.54259 3.498047,4.56445 1.43368,1.02185 2.704626,1.30968 4.564453,1.52149 1.859828,0.21181 6.390625,-0.60742 6.390625,-0.60742 L 45.646484,48.738281 C 44.418847,46.17778 43.87877,46.153283 42.603516,45.390625 41.328262,44.627967 40.23066,44.537671 38.34375,44.326172 c -0.471728,-0.05288 -1.146001,-0.07076 -1.890625,-0.06641 z M 17.097656,70.294922 c -1.674873,0.0072 -3.099609,0.04883 -3.099609,0.04883 0,0 22.738012,45.882178 23.326172,46.927728 0,0 1.486193,2.52872 2.666015,3.24805 1.179821,0.71934 2.084007,0.6836 3.998047,0.85938 1.91404,0.17579 7.441406,-0.21485 7.441407,-0.21485 0,0 -20.862037,-43.784865 -21.990235,-45.636714 0,0 -2.282898,-3.349902 -3.484375,-4 -1.201477,-0.650098 -2.254596,-0.803174 -4.255859,-1.076172 -1.000632,-0.136499 -2.926689,-0.163477 -4.601563,-0.15625 z m 191.638674,0.464844 c -0.3446,0.0047 -0.64851,0.01717 -0.89063,0.04102 -1.93695,0.190772 -2.6899,0.20648 -3.80468,0.91211 -1.11477,0.705629 -2.50977,3.11914 -2.50977,3.11914 -0.50648,1.875814 -23.20313,47.246094 -23.20313,47.246094 10e-6,0 6.7169,0.21035 8.74805,-0.22851 2.03115,-0.43887 2.18055,-0.43164 3.42383,-1.44532 1.24328,-1.01367 2.16856,-2.46147 3.34766,-4.86914 l 21.75781,-44.429686 c 0,0 -4.45698,-0.378743 -6.86914,-0.345703 z"
             id="path4452" />
        </g>
        <path
           inkscape:connector-curvature="0"
           id="path4468"
           d="M 358.93036,310.70395 182.05902,412.82068 5.1876558,310.70395 l 0,-204.23343 L 182.05902,4.3538019 358.93036,106.47052 Z"
           style="fill:none;stroke:#ff0000;stroke-width:2.23849154;stroke-opacity:1" />
        <path
           style="fill:none;stroke:#ff0000;stroke-width:2.03387141;stroke-opacity:1"
           d="m 342.76262,301.36951 -160.7036,92.78224 -160.703601,-92.78224 0,-185.56452 160.703601,-92.782265 160.7036,92.782265 z"
           id="path4512"
           inkscape:connector-curvature="0" />
      </g>
      <g
         style="display:inline"
         inkscape:label="Layer 3"
         id="layer3" />
      <g
         style="display:inline"
         inkscape:label="Layer 2"
         id="layer2" />
    </g>
    <g
       transform="matrix(-1,0,0,1,1732.5635,-550.44749)"
       id="g5586">
      <g
         inkscape:label="Layer 1"
         id="g5588"
         style="display:inline;opacity:1">
        <g
           id="g5590"
           transform="matrix(1.3686097,0,0,1.3686097,24.956634,98.832573)">
          <path
             id="path5592"
             d="m 68.453125,19.988281 c -7.267999,-0.01327 -17.480469,0.296875 -17.480469,0.296875 L 115.03125,153.26953 180.45703,20.4375 c 0,0 -19.93607,-0.698582 -25.18164,-0.152344 -5.24558,0.546238 -4.54648,0.256628 -6.31445,1.369141 -1.76797,1.112513 -2.81645,2.812939 -3.72656,4.792969 L 115.33398,91.494141 85.283203,25.914062 c -0.857124,-1.870485 -1.65866,-3.431599 -3.574219,-4.564453 -1.915558,-1.132853 -2.333379,-0.818139 -7.457031,-1.216797 -1.280913,-0.09966 -3.376162,-0.140108 -5.798828,-0.144531 z m 124.746095,23.71875 c -0.86258,0.01793 -1.63579,0.06647 -2.16602,0.16211 -2.12092,0.382561 -2.88424,0.329337 -4.49023,1.673828 -1.60599,1.34449 -2.53809,3.855232 -3.95508,6.695312 -1.41699,2.84008 -41.38672,85.966799 -41.38672,85.966799 0,0 5.23659,0.22629 7.30274,-0.0762 2.06614,-0.30247 3.30249,-0.13317 5.02148,-1.44532 1.719,-1.31214 2.60477,-3.65848 4.0332,-6.61718 l 41.61524,-86.197269 c 0,0 -3.38688,-0.215907 -5.97461,-0.16211 z M 36.453125,44.259766 c -2.233872,0.01305 -5.109375,0.216796 -5.109375,0.216796 0,0 41.312896,85.273718 42.453125,87.642578 0,0 2.064367,3.54259 3.498047,4.56445 1.43368,1.02185 2.704626,1.30968 4.564453,1.52149 1.859828,0.21181 6.390625,-0.60742 6.390625,-0.60742 L 45.646484,48.738281 C 44.418847,46.17778 43.87877,46.153283 42.603516,45.390625 41.328262,44.627967 40.23066,44.537671 38.34375,44.326172 c -0.471728,-0.05288 -1.146001,-0.07076 -1.890625,-0.06641 z M 17.097656,70.294922 c -1.674873,0.0072 -3.099609,0.04883 -3.099609,0.04883 0,0 22.738012,45.882178 23.326172,46.927728 0,0 1.486193,2.52872 2.666015,3.24805 1.179821,0.71934 2.084007,0.6836 3.998047,0.85938 1.91404,0.17579 7.441406,-0.21485 7.441407,-0.21485 0,0 -20.862037,-43.784865 -21.990235,-45.636714 0,0 -2.282898,-3.349902 -3.484375,-4 -1.201477,-0.650098 -2.254596,-0.803174 -4.255859,-1.076172 -1.000632,-0.136499 -2.926689,-0.163477 -4.601563,-0.15625 z m 191.638674,0.464844 c -0.3446,0.0047 -0.64851,0.01717 -0.89063,0.04102 -1.93695,0.190772 -2.6899,0.20648 -3.80468,0.91211 -1.11477,0.705629 -2.50977,3.11914 -2.50977,3.11914 -0.50648,1.875814 -23.20313,47.246094 -23.20313,47.246094 10e-6,0 6.7169,0.21035 8.74805,-0.22851 2.03115,-0.43887 2.18055,-0.43164 3.42383,-1.44532 1.24328,-1.01367 2.16856,-2.46147 3.34766,-4.86914 l 21.75781,-44.429686 c 0,0 -4.45698,-0.378743 -6.86914,-0.345703 z"
             style="fill:none;fill-rule:evenodd;stroke:#ff0000;stroke-width:1px;stroke-linecap:butt;stroke-linejoin:miter;stroke-opacity:1"
             inkscape:connector-curvature="0" />
        </g>
        <path
           style="fill:none;stroke:#ff0000;stroke-width:2.23849154;stroke-opacity:1"
           d="M 358.93036,310.70395 182.05902,412.82068 5.1876558,310.70395 l 0,-204.23343 L 182.05902,4.3538019 358.93036,106.47052 Z"
           id="path5594"
           inkscape:connector-curvature="0" />
        <path
           inkscape:connector-curvature="0"
           id="path5596"
           d="m 342.76262,301.36951 -160.7036,92.78224 -160.703601,-92.78224 0,-185.56452 160.703601,-92.782265 160.7036,92.782265 z"
           style="fill:none;stroke:#ff0000;stroke-width:2.03387141;stroke-opacity:1" />
      </g>
      <g
         id="g5598"
         inkscape:label="Layer 3"
         style="display:inline" />
      <g
         id="g5600"
         inkscape:label="Layer 2"
         style="display:inline" />
    </g>
    <g
       id="g5602"
       transform="matrix(-1,0,0,1,1322.2008,-550.44749)">
      <g
         style="display:inline;opacity:1"
         id="g5604"
         inkscape:label="Layer 1">
        <g
           transform="matrix(1.3686097,0,0,1.3686097,24.956634,98.832573)"
           id="g5606">
          <path
             inkscape:connector-curvature="0"
             style="fill:none;fill-rule:evenodd;stroke:#ff0000;stroke-width:1px;stroke-linecap:butt;stroke-linejoin:miter;stroke-opacity:1"
             d="m 68.453125,19.988281 c -7.267999,-0.01327 -17.480469,0.296875 -17.480469,0.296875 L 115.03125,153.26953 180.45703,20.4375 c 0,0 -19.93607,-0.698582 -25.18164,-0.152344 -5.24558,0.546238 -4.54648,0.256628 -6.31445,1.369141 -1.76797,1.112513 -2.81645,2.812939 -3.72656,4.792969 L 115.33398,91.494141 85.283203,25.914062 c -0.857124,-1.870485 -1.65866,-3.431599 -3.574219,-4.564453 -1.915558,-1.132853 -2.333379,-0.818139 -7.457031,-1.216797 -1.280913,-0.09966 -3.376162,-0.140108 -5.798828,-0.144531 z m 124.746095,23.71875 c -0.86258,0.01793 -1.63579,0.06647 -2.16602,0.16211 -2.12092,0.382561 -2.88424,0.329337 -4.49023,1.673828 -1.60599,1.34449 -2.53809,3.855232 -3.95508,6.695312 -1.41699,2.84008 -41.38672,85.966799 -41.38672,85.966799 0,0 5.23659,0.22629 7.30274,-0.0762 2.06614,-0.30247 3.30249,-0.13317 5.02148,-1.44532 1.719,-1.31214 2.60477,-3.65848 4.0332,-6.61718 l 41.61524,-86.197269 c 0,0 -3.38688,-0.215907 -5.97461,-0.16211 z M 36.453125,44.259766 c -2.233872,0.01305 -5.109375,0.216796 -5.109375,0.216796 0,0 41.312896,85.273718 42.453125,87.642578 0,0 2.064367,3.54259 3.498047,4.56445 1.43368,1.02185 2.704626,1.30968 4.564453,1.52149 1.859828,0.21181 6.390625,-0.60742 6.390625,-0.60742 L 45.646484,48.738281 C 44.418847,46.17778 43.87877,46.153283 42.603516,45.390625 41.328262,44.627967 40.23066,44.537671 38.34375,44.326172 c -0.471728,-0.05288 -1.146001,-0.07076 -1.890625,-0.06641 z M 17.097656,70.294922 c -1.674873,0.0072 -3.099609,0.04883 -3.099609,0.04883 0,0 22.738012,45.882178 23.326172,46.927728 0,0 1.486193,2.52872 2.666015,3.24805 1.179821,0.71934 2.084007,0.6836 3.998047,0.85938 1.91404,0.17579 7.441406,-0.21485 7.441407,-0.21485 0,0 -20.862037,-43.784865 -21.990235,-45.636714 0,0 -2.282898,-3.349902 -3.484375,-4 -1.201477,-0.650098 -2.254596,-0.803174 -4.255859,-1.076172 -1.000632,-0.136499 -2.926689,-0.163477 -4.601563,-0.15625 z m 191.638674,0.464844 c -0.3446,0.0047 -0.64851,0.01717 -0.89063,0.04102 -1.93695,0.190772 -2.6899,0.20648 -3.80468,0.91211 -1.11477,0.705629 -2.50977,3.11914 -2.50977,3.11914 -0.50648,1.875814 -23.20313,47.246094 -23.20313,47.246094 10e-6,0 6.7169,0.21035 8.74805,-0.22851 2.03115,-0.43887 2.18055,-0.43164 3.42383,-1.44532 1.24328,-1.01367 2.16856,-2.46147 3.34766,-4.86914 l 21.75781,-44.429686 c 0,0 -4.45698,-0.378743 -6.86914,-0.345703 z"
             id="path5608" />
        </g>
        <path
           inkscape:connector-curvature="0"
           id="path5610"
           d="M 358.93036,310.70395 182.05902,412.82068 5.1876558,310.70395 l 0,-204.23343 L 182.05902,4.3538019 358.93036,106.47052 Z"
           style="fill:none;stroke:#ff0000;stroke-width:2.23849154;stroke-opacity:1" />
        <path
           style="fill:none;stroke:#ff0000;stroke-width:2.03387141;stroke-opacity:1"
           d="m 342.76262,301.36951 -160.7036,92.78224 -160.703601,-92.78224 0,-185.56452 160.703601,-92.782265 160.7036,92.782265 z"
           id="path5612"
           inkscape:connector-curvature="0" />
      </g>
      <g
         style="display:inline"
         inkscape:label="Layer 3"
         id="g5614" />
      <g
         style="display:inline"
         inkscape:label="Layer 2"
         id="g5616" />
    </g>
    <g
       transform="matrix(-1,0,0,1,902.51172,-550.44749)"
       id="g5618">
      <g
         inkscape:label="Layer 1"
         id="g5620"
         style="display:inline;opacity:1">
        <g
           id="g5622"
           transform="matrix(1.3686097,0,0,1.3686097,24.956634,98.832573)">
          <path
             id="path5624"
             d="m 68.453125,19.988281 c -7.267999,-0.01327 -17.480469,0.296875 -17.480469,0.296875 L 115.03125,153.26953 180.45703,20.4375 c 0,0 -19.93607,-0.698582 -25.18164,-0.152344 -5.24558,0.546238 -4.54648,0.256628 -6.31445,1.369141 -1.76797,1.112513 -2.81645,2.812939 -3.72656,4.792969 L 115.33398,91.494141 85.283203,25.914062 c -0.857124,-1.870485 -1.65866,-3.431599 -3.574219,-4.564453 -1.915558,-1.132853 -2.333379,-0.818139 -7.457031,-1.216797 -1.280913,-0.09966 -3.376162,-0.140108 -5.798828,-0.144531 z m 124.746095,23.71875 c -0.86258,0.01793 -1.63579,0.06647 -2.16602,0.16211 -2.12092,0.382561 -2.88424,0.329337 -4.49023,1.673828 -1.60599,1.34449 -2.53809,3.855232 -3.95508,6.695312 -1.41699,2.84008 -41.38672,85.966799 -41.38672,85.966799 0,0 5.23659,0.22629 7.30274,-0.0762 2.06614,-0.30247 3.30249,-0.13317 5.02148,-1.44532 1.719,-1.31214 2.60477,-3.65848 4.0332,-6.61718 l 41.61524,-86.197269 c 0,0 -3.38688,-0.215907 -5.97461,-0.16211 z M 36.453125,44.259766 c -2.233872,0.01305 -5.109375,0.216796 -5.109375,0.216796 0,0 41.312896,85.273718 42.453125,87.642578 0,0 2.064367,3.54259 3.498047,4.56445 1.43368,1.02185 2.704626,1.30968 4.564453,1.52149 1.859828,0.21181 6.390625,-0.60742 6.390625,-0.60742 L 45.646484,48.738281 C 44.418847,46.17778 43.87877,46.153283 42.603516,45.390625 41.328262,44.627967 40.23066,44.537671 38.34375,44.326172 c -0.471728,-0.05288 -1.146001,-0.07076 -1.890625,-0.06641 z M 17.097656,70.294922 c -1.674873,0.0072 -3.099609,0.04883 -3.099609,0.04883 0,0 22.738012,45.882178 23.326172,46.927728 0,0 1.486193,2.52872 2.666015,3.24805 1.179821,0.71934 2.084007,0.6836 3.998047,0.85938 1.91404,0.17579 7.441406,-0.21485 7.441407,-0.21485 0,0 -20.862037,-43.784865 -21.990235,-45.636714 0,0 -2.282898,-3.349902 -3.484375,-4 -1.201477,-0.650098 -2.254596,-0.803174 -4.255859,-1.076172 -1.000632,-0.136499 -2.926689,-0.163477 -4.601563,-0.15625 z m 191.638674,0.464844 c -0.3446,0.0047 -0.64851,0.01717 -0.89063,0.04102 -1.93695,0.190772 -2.6899,0.20648 -3.80468,0.91211 -1.11477,0.705629 -2.50977,3.11914 -2.50977,3.11914 -0.50648,1.875814 -23.20313,47.246094 -23.20313,47.246094 10e-6,0 6.7169,0.21035 8.74805,-0.22851 2.03115,-0.43887 2.18055,-0.43164 3.42383,-1.44532 1.24328,-1.01367 2.16856,-2.46147 3.34766,-4.86914 l 21.75781,-44.429686 c 0,0 -4.45698,-0.378743 -6.86914,-0.345703 z"
             style="fill:none;fill-rule:evenodd;stroke:#ff0000;stroke-width:1px;stroke-linecap:butt;stroke-linejoin:miter;stroke-opacity:1"
             inkscape:connector-curvature="0" />
        </g>
        <path
           style="fill:none;stroke:#ff0000;stroke-width:2.23849154;stroke-opacity:1"
           d="M 358.93036,310.70395 182.05902,412.82068 5.1876558,310.70395 l 0,-204.23343 L 182.05902,4.3538019 358.93036,106.47052 Z"
           id="path5626"
           inkscape:connector-curvature="0" />
        <path
           inkscape:connector-curvature="0"
           id="path5628"
           d="m 342.76262,301.36951 -160.7036,92.78224 -160.703601,-92.78224 0,-185.56452 160.703601,-92.782265 160.7036,92.782265 z"
           style="fill:none;stroke:#ff0000;stroke-width:2.03387141;stroke-opacity:1" />
      </g>
      <g
         id="g5630"
         inkscape:label="Layer 3"
         style="display:inline" />
      <g
         id="g5632"
         inkscape:label="Layer 2"
         style="display:inline" />
    </g>
    <g
       id="g5703"
       transform="matrix(0,3.681491,-3.681491,0,2058.2621,-485.296)">
      <g
         style="display:inline;opacity:1"
         id="layer1-9"
         inkscape:label="Layer 1">
        <path
           sodipodi:nodetypes="sssssccccccccccccc"
           style="display:inline;opacity:1;fill:none;fill-rule:evenodd;stroke:#0000ff;stroke-width:0.09581926px;stroke-linecap:butt;stroke-linejoin:miter;stroke-opacity:1"
           d="m 37.894562,13.715118 c 15.711878,3e-5 28.448861,12.85718 28.44888,28.71729 -1.9e-5,15.86009 -12.8513,28.25986 -28.563179,28.2599 -15.711875,-4e-5 -28.334559,-12.39981 -28.334578,-28.2599 1.9e-5,-15.86011 12.737001,-28.71726 28.448877,-28.71729 z m 0.575344,7.67339 -9.944678,0.0404 0,5.82132 4.972431,0.0404 1.899955,4.85117 -15.604363,26.07448 7.92345,0 11.076652,-17.26178 7.155288,18.87883 11.602278,-3.59792 -1.940502,-5.98295 -5.33624,1.81905 z"
           id="path4258"
           inkscape:connector-curvature="0" />
        <path
           sodipodi:nodetypes="sssss"
           inkscape:connector-curvature="0"
           id="path4264"
           d="m 72.131188,13.542478 c 3.242784,2e-5 5.871576,2.62881 5.871586,5.87159 -1.2e-5,3.24279 -2.628805,5.87158 -5.871586,5.87159 -3.242784,-1e-5 -5.871577,-2.6288 -5.871591,-5.87159 1.2e-5,-3.24278 2.628804,-5.87157 5.871591,-5.87159 z"
           style="display:inline;opacity:1;fill:none;fill-rule:evenodd;stroke:#000000;stroke-width:0.09581926px;stroke-linecap:butt;stroke-linejoin:miter;stroke-opacity:1" />
        <path
           sodipodi:nodetypes="sccscccss"
           style="display:inline;opacity:1;fill:none;fill-rule:evenodd;stroke:#ff0000;stroke-width:0.09581926px;stroke-linecap:butt;stroke-linejoin:miter;stroke-opacity:1"
           d="m 74.979468,7.3777177 c -7.264128,0.0433 -35.965407,0.0312 -35.965407,0.0312 -0.478833,0.0189 -0.799152,0.008 -1.119499,4.7e-4 -19.268499,6e-5 -34.8886806,15.6803303 -34.8886521,35.0229503 -2.85e-5,19.3426 15.6201531,34.45124 34.8886521,34.45126 15.267181,-0.0172 28.749969,-9.42534 33.279126,-24.06133 l 0.05797,-0.15135 c 0,0 8.734961,-20.58135 13.582955,-31.97672 1.610729,-3.78605 -1.848449,-13.3642003 -9.83515,-13.3165603 z"
           id="path4266"
           inkscape:connector-curvature="0" />
      </g>
      <g
         style="display:inline"
         inkscape:label="Layer 3"
         id="layer3-5" />
      <g
         style="display:inline"
         inkscape:label="Layer 2"
         id="layer2-5" />
    </g>
  </g>
</svg>
